<svg width="96" height="96" viewBox="0 0 96 96" fill="none" xmlns="http://www.w3.org/2000/svg">
  <defs>
    <linearGradient id="g" x1="14" y1="10" x2="82" y2="88" gradientUnits="userSpaceOnUse">
      <stop stop-color="#0B5CAB"/>
      <stop offset="1" stop-color="#12B8A6"/>
    </linearGradient>
  </defs>
  <rect x="4" y="4" width="88" height="88" rx="26" fill="url(#g)"/>
  <path d="M48 69C43.5 65.4 27 54.1 27 40.2C27 32.9 32.4 27 39.2 27C43.1 27 46.5 29.1 48 32.2C49.5 29.1 52.9 27 56.8 27C63.6 27 69 32.9 69 40.2C69 54.1 52.5 65.4 48 69Z" fill="white" fill-opacity=".98"/>
  <path d="M48 36V51M40.5 43.5H55.5" stroke="#0B5CAB" stroke-width="4.5" stroke-linecap="round"/>
  <circle cx="19" cy="22" r="4" fill="#12B8A6"/>
  <circle cx="77" cy="74" r="4" fill="#12B8A6"/>
  <path d="M22 25L31 31M65 65L74 71" stroke="#12B8A6" stroke-width="2.5" stroke-linecap="round" opacity=".9"/>
</svg>
